<?xml version="1.0" encoding="UTF-8"?><svg xmlns="http://www.w3.org/2000/svg" xmlns:xlink="http://www.w3.org/1999/xlink" width="1024" height="1024"><defs><pattern xlink:href="#a" id="h" x="0" y="0" patternTransform="matrix(1.1 0 0 1.1 100.727 162.524)" preserveAspectRatio="none"/><pattern xlink:href="#b" id="i" x="0" y="0" patternTransform="matrix(1.1 0 0 1.1 100.727 162.524)" preserveAspectRatio="none"/><pattern xlink:href="#c" id="m" x="-2" y="8" patternTransform="translate(262.387 774.15)scale(.625)" preserveAspectRatio="xMidYMid"/><pattern id="c" width="298.05" height="27.839" patternTransform="translate(217.953 2089.169)" patternUnits="userSpaceOnUse" preserveAspectRatio="xMidYMid" style="fill:#000"><path d="M0 0h13.92v13.919H0Zm28.419.696h12.527v12.527H28.42Zm28.419.696h11.135v11.135H56.838Zm28.419.696H95v9.743h-9.743zm28.418.696h8.352v8.351h-8.352zm28.42.696h6.959v6.959h-6.96zm28.418.696h5.568v5.567h-5.568zm28.419.696h4.176v4.175h-4.176zm28.419.696h2.784v2.783h-2.784zm28.419.695h1.392v1.392h-1.392zM13.86 13.919h13.92v13.92H13.86Zm28.42.696h12.527v12.528H42.28Zm28.418.696h11.136v11.136H70.699Zm28.419.696h9.744v9.744h-9.744Zm28.419.696h8.351v8.352h-8.351zm28.419.696h6.96v6.96h-6.96zm28.419.696h5.567v5.568h-5.567zm28.419.696h4.175v4.176h-4.175zm28.418.696h2.784v2.784h-2.784zm28.42.696h1.391v1.392h-1.392zm28.418.696" style="stroke-width:.395906;stroke-linecap:square;paint-order:stroke markers fill;stop-color:#000"/></pattern><pattern xlink:href="#d" id="q" x="0" y="0" patternTransform="rotate(-90 -.065 -112.091)" preserveAspectRatio="xMidYMid"/><pattern id="d" width="4" height="1" patternTransform="scale(2)" patternUnits="userSpaceOnUse" preserveAspectRatio="xMidYMid" style="fill:#000"><path d="M0-.5h1v2H0z" style="stroke:none"/></pattern><pattern xlink:href="#e" id="p" width="979.322" x="-451" y="0" patternTransform="matrix(0 -.39 .503 0 109.289 -168.95)" preserveAspectRatio="xMidYMid"/><pattern id="e" width="349.758" height="27.61" patternTransform="scale(.2)" patternUnits="userSpaceOnUse" preserveAspectRatio="xMidYMid" style="fill:#000"><path d="M349.526 0h.232v27.61h-.232zM331.13 0h1.054v27.61h-1.054zm-18.396 0h1.876v27.61h-1.876zm-18.397 0h2.7v27.61h-2.7zm-18.396 0h3.522v27.61h-3.522zm-18.396 0h4.344v27.61h-4.344zM239.15 0h5.166v27.61h-5.166zm-18.396 0h5.988v27.61h-5.988zm-18.396 0h6.81v27.61h-6.81zm-18.396 0h7.633v27.61h-7.633zm-18.396 0h8.455v27.61h-8.455zm-18.396 0h9.277v27.61h-9.277zm-18.396 0h10.1v27.61h-10.1zm-18.396 0h10.921v27.61h-10.921ZM91.98 0h11.744v27.61H91.98ZM73.584 0h12.567v27.61H73.584ZM55.188 0h13.39v27.61h-13.39ZM36.792 0h14.211v27.61h-14.21ZM18.396 0H33.43v27.61H18.396ZM0 0h15.856v27.61H0Z" style="stroke-width:.487199;stroke-linecap:square;paint-order:markers fill stroke;stop-color:#000"/></pattern><pattern id="a" width="52" height="52" patternUnits="userSpaceOnUse"><path fill="#8a8a8a" d="M0 0h52v52H0z"/><path fill="#666" d="M0 0h26v26H0zM26 26h26v26H26z"/></pattern><pattern id="b" width="26" height="26" patternUnits="userSpaceOnUse"><path fill="none" stroke="#fff" d="M26 0H0v26" opacity=".8"/></pattern><linearGradient id="g"><stop offset="0" style="stop-color:#ff0;stop-opacity:1"/><stop offset="1" style="stop-color:#000;stop-opacity:1"/></linearGradient><linearGradient id="f"><stop offset="0" style="stop-color:#fff;stop-opacity:1"/><stop offset="1" style="stop-color:#000;stop-opacity:0"/></linearGradient><linearGradient id="k" x1="80.547" x2="183.543" y1="575.561" y2="575.561" gradientTransform="scale(3.0293 .3301)" gradientUnits="userSpaceOnUse"><stop offset="0" stop-color="red"/><stop offset=".16" stop-color="#ff7a00"/><stop offset=".32" stop-color="#ff0"/><stop offset=".48" stop-color="#0f0"/><stop offset=".64" stop-color="#0ff"/><stop offset=".8" stop-color="#06f"/><stop offset="1" stop-color="#f0f"/></linearGradient><linearGradient xlink:href="#f" id="l" x1="260.35" x2="560.35" y1="291" y2="291" gradientTransform="matrix(.8086 0 0 1 68.174 0)" gradientUnits="userSpaceOnUse"/><linearGradient xlink:href="#g" id="o" x1="260.35" x2="389.333" y1="541.5" y2="541.5" gradientTransform="matrix(.6977 0 0 1 117.693 0)" gradientUnits="userSpaceOnUse"/><clipPath id="j"><circle cx="400" cy="172" r="155"/></clipPath><clipPath id="n" clipPathUnits="userSpaceOnUse"><circle cx="400" cy="382" r="155" fill="#fff" style="display:inline"/></clipPath></defs><!--Background--><!--Outer black / white corner circles--><!--Top color blocks--><!--Side color bars--><!--Bottom color blocks--><!--Main circular test pattern--><!--Central black circle/marker--><!--Side vertical colored blocks around circle--><!--Outer border--><path d="M.156 0h1024v1024H.156z" style="fill:url(#h);fill-opacity:1;stroke:none;stroke-width:1.11585;stroke-linecap:square;stroke-linejoin:round;paint-order:stroke fill markers"/><path d="M.156 0h1024v1024H.156z" style="display:inline;fill:url(#i);fill-opacity:1;stroke:none;stroke-width:1.11585;stroke-linecap:square;stroke-linejoin:round;paint-order:stroke fill markers"/><g transform="translate(0 28)"><g style="display:inline" transform="translate(112.156 322.027)"><path fill="#f0f" d="M108 29h52v52h-52z"/><path fill="#32d420" d="M642.566 26.248h52v52h-52z"/><path fill="#001cff" d="M108 106h28v132h-28z"/><path fill="#ff0" d="M667 106h28v132h-28z"/><path fill="#a40082" d="M101.289 286h52v52h-52z"/><path fill="#459ce0" d="M645.429 286h52v52h-52z"/><circle cx="400" cy="172" r="155" fill="#fff"/><g clip-path="url(#j)" style="display:inline"><!--Top black bar--><path d="M250 28h300v48H250z"/><!--White top band--><path fill="#fff" d="M230 76h340v31H230z"/><!--Black/white alternating blocks--><path fill="#fff" d="M230 76h340v31H230z"/><path d="M245 76h34v31h-34zM313 76h34v31h-34zM381 76h34v31h-34zM449 76h34v31h-34zM517 76h34v31h-34z"/><!--Main color bars--><path fill="#ff0" d="M244 107h52v83h-52z"/><path fill="#0ff" d="M296 107h52v83h-52z"/><path fill="#0f0" d="M348 107h52v83h-52z"/><path fill="#f0f" d="M400 107h52v83h-52z"/><path fill="red" d="M452 107h52v83h-52z"/><path fill="#00f" d="M504 107h52v83h-52z"/><!--Black separator--><path d="M244 159h312v31H244z"/><!--White center--><path fill="#fff" d="M244 190h312v32H244z"/><!--Bottom rainbow strip--><path fill="url(#k)" d="M244 190h312v34H244z" style="fill:url(#k)"/><!--Fine resolution lines--><g stroke="#fff" opacity=".9"><path d="M250 224v22M254 224v22M258 224v22M262 224v22M266 224v22M270 224v22M274 224v22M278 224v22M282 224v22M286 224v22M290 224v22M294 224v22M298 224v22M302 224v22M306 224v22M310 224v22M314 224v22M318 224v22M322 224v22M326 224v22M330 224v22M334 224v22M338 224v22M342 224v22M346 224v22M350 224v22M354 224v22M358 224v22M362 224v22M366 224v22M370 224v22M374 224v22M378 224v22M382 224v22M386 224v22M390 224v22M394 224v22M398 224v22M402 224v22M406 224v22M410 224v22M414 224v22M418 224v22M422 224v22M426 224v22M430 224v22M434 224v22M438 224v22M442 224v22M446 224v22M450 224v22M454 224v22M458 224v22M462 224v22M466 224v22M470 224v22M474 224v22M478 224v22M482 224v22M486 224v22M490 224v22M494 224v22M498 224v22M502 224v22M506 224v22M510 224v22M514 224v22M518 224v22M522 224v22M526 224v22M530 224v22M534 224v22M538 224v22M542 224v22"/></g><!--Bottom black bar--><path d="M250 246h300v45H250z"/><path d="M278.704 268.5h242.592v45H278.704z" style="display:inline;fill:url(#l);stroke-width:.899244"/><!--White lower area--><path fill="#fff" d="M280 291h240v53H280z"/><!--Center vertical black--><path d="M76-517h31v102H76z" style="fill:url(#m);fill-opacity:1;stroke:none;stroke-width:3.81953;stroke-linecap:square;stroke-linejoin:round;paint-order:stroke fill markers" transform="rotate(90)"/><path d="M388 126h24v103h-24z"/></g><g clip-path="url(#n)" style="display:inline" transform="translate(0 -210)"><path fill="#ffdf00" d="M299.341 501h89.992v81h-89.992z" style="display:inline;fill:url(#o);stroke-width:1.29094"/><path fill="red" d="M389.333 501h27v81h-27z" style="display:inline"/><path fill="#ff0" d="M416.333 501H550v81H416.333z" style="display:inline;stroke-width:2.225"/></g><circle cx="400" cy="172" r="29" style="display:inline"/><path fill="#0ff" d="M145 106h54v84h-54zM601 106h54v84h-54z"/></g><circle cx="164.4" cy="374.63" r="26" style="display:inline"/><circle cx="854.4" cy="374.63" r="26" fill="#fff" stroke="#000" style="display:inline"/><circle cx="854.4" cy="634.63" r="26" style="display:inline"/><circle cx="164.105" cy="634.027" r="26" fill="#fff" stroke="#000" style="display:inline"/><path d="M335.367 494.248h353.265v.959H335.367z" style="fill:#fff;stroke:none;stroke-width:1.25;stroke-linecap:square;stroke-linejoin:round;paint-order:stroke fill markers"/><path d="M476.496-513.504H512V-512h-35.504z" style="fill:#fff;stroke:none;stroke-width:.496301;stroke-linecap:square;stroke-linejoin:round;paint-order:stroke fill markers" transform="rotate(90)"/><path d="M545.959-586.156h22.135v210.158h-22.135z" style="fill:url(#p);fill-opacity:1;stroke:none;stroke-width:4.63281;stroke-linecap:square;stroke-linejoin:round;paint-order:stroke fill markers" transform="rotate(90)"/><path d="M545.891-648.351h22.135v136.195h-22.135z" style="fill:url(#q);fill-opacity:1;stroke:none;stroke-width:3.72952;stroke-linecap:square;stroke-linejoin:round;paint-order:stroke fill markers" transform="rotate(90)"/><path d="M459.227 350.027h33.929v48h-33.929zM527.156 350.027h33.929v48h-33.929z" style="fill:#c8c8c8;fill-opacity:1;stroke:none;stroke-width:1.25;stroke-linecap:square;stroke-linejoin:round;paint-order:stroke fill markers"/><path d="M51.864 495.5h1v53h-1z" style="fill:#000;fill-opacity:1;stroke:none;stroke-width:1.21606;stroke-linecap:square;stroke-linejoin:round;paint-order:stroke fill markers" transform="translate(112.156 112.027)"/><path d="M521.72-78.364h.998v52.915h-.998z" style="fill:#000;fill-opacity:1;stroke:none;stroke-width:1.21411;stroke-linecap:square;stroke-linejoin:round;paint-order:stroke fill markers" transform="rotate(90 .065 112.091)"/><path d="M51.864 495.5h1v53h-1z" style="fill:#000;fill-opacity:1;stroke:none;stroke-width:1.21606;stroke-linecap:square;stroke-linejoin:round;paint-order:stroke fill markers" transform="translate(802.535 -147.87)"/><path d="M521.72-78.364h.998v52.915h-.998z" style="fill:#000;fill-opacity:1;stroke:none;stroke-width:1.21411;stroke-linecap:square;stroke-linejoin:round;paint-order:stroke fill markers" transform="rotate(90 475.203 327.333)"/><path d="M51.864 495.5h1v53h-1z" style="fill:#fff;fill-opacity:1;stroke:none;stroke-width:1.21606;stroke-linecap:square;stroke-linejoin:round;paint-order:stroke fill markers" transform="translate(801.535 112.13)"/><path d="M521.72-78.364h.998v52.915h-.998z" style="fill:#fff;fill-opacity:1;stroke:none;stroke-width:1.21411;stroke-linecap:square;stroke-linejoin:round;paint-order:stroke fill markers" transform="rotate(90 344.703 456.833)"/><path d="M51.864 495.5h1v53h-1z" style="fill:#fff;fill-opacity:1;stroke:none;stroke-width:1.21606;stroke-linecap:square;stroke-linejoin:round;paint-order:stroke fill markers" transform="translate(112.535 -147.87)"/><path d="M521.72-78.364h.998v52.915h-.998z" style="fill:#fff;fill-opacity:1;stroke:none;stroke-width:1.21411;stroke-linecap:square;stroke-linejoin:round;paint-order:stroke fill markers" transform="rotate(90 130.203 -17.667)"/></g><metadata/></svg>